<svg xmlns="http://www.w3.org/2000/svg" version="1.0" width="1024.000000pt" height="1024.000000pt" viewBox="0 0 1024.000000 1024.000000" preserveAspectRatio="xMidYMid meet">

<g transform="translate(0.000000,1024.000000) scale(0.100000,-0.100000)" fill="#1aff1a" stroke="none">
<path d="M5175 8770 c-267 -19 -569 -102 -830 -230 -505 -246 -919 -702 -1115 -1225 -25 -68 -27 -70 -55 -65 -17 3 -86 5 -155 4 -149 -1 -226 -18 -355 -78 -214 -101 -380 -290 -460 -526 -25 -73 -49 -205 -44 -234 3 -12 27 -26 69 -40 71 -25 180 -78 223 -108 l27 -19 0 68 c1 172 66 328 182 439 112 106 233 153 391 154 79 0 74 15 52 -160 -9 -69 -19 -144 -21 -167 l-5 -43 -43 0 c-76 0 -136 -28 -202 -94 -77 -78 -98 -132 -93 -249 5 -97 36 -172 100 -236 57 -56 116 -82 207 -90 l76 -6 17 -95 c9 -52 26 -135 38 -183 11 -49 21 -90 21 -93 0 -2 -22 -4 -49 -4 -47 0 -49 -1 -55 -33 -29 -156 -199 -262 -342 -213 -26 9 -49 14 -51 12 -10 -10 145 -76 214 -92 77 -17 207 -23 292 -14 l45 5 56 -107 c100 -191 227 -382 374 -561 35 -42 36 -47 20 -54 -44 -16 -379 -202 -513 -284 -151 -93 -361 -246 -361 -262 0 -5 33 -89 74 -186 95 -224 109 -261 105 -265 -2 -1 -56 -30 -120 -64 l-116 -61 -16 37 c-44 106 -206 480 -357 827 -51 116 -120 275 -155 355 -34 80 -102 232 -149 338 -48 107 -88 199 -89 204 -1 6 39 31 88 55 50 25 92 47 94 49 2 2 -24 66 -59 141 -123 271 -126 282 -90 340 25 42 74 67 130 66 44 0 180 -50 501 -184 126 -53 176 -60 202 -31 33 37 22 74 -40 133 -69 65 -189 166 -378 319 -212 172 -354 230 -557 230 -150 0 -161 -4 -721 -275 -64 -31 -117 -62 -117 -69 0 -8 7 -30 15 -49 33 -79 7 -193 -55 -237 -22 -16 -125 -50 -150 -50 -4 0 -24 32 -45 70 -23 42 -45 70 -54 69 -27 -1 -346 -165 -344 -177 4 -19 324 -696 338 -715 13 -18 21 -15 152 46 76 36 155 72 175 81 21 8 38 19 38 24 0 5 -13 41 -29 80 l-30 71 48 35 c82 60 133 69 229 41 51 -16 52 -17 91 -98 21 -45 49 -106 61 -134 12 -29 25 -53 28 -53 2 0 47 20 98 44 84 40 95 43 103 28 20 -39 329 -729 376 -842 15 -36 79 -182 142 -325 63 -143 175 -399 249 -569 73 -170 135 -310 136 -312 2 -1 96 44 208 101 297 151 335 167 411 173 127 9 254 -50 324 -152 48 -69 65 -131 65 -232 0 -109 -25 -176 -92 -249 -43 -47 -72 -66 -192 -124 -77 -38 -244 -119 -369 -180 -125 -61 -248 -116 -273 -122 -26 -7 -73 -9 -111 -6 -154 15 -274 116 -318 272 -32 110 -4 261 65 346 16 21 30 40 30 44 0 11 -274 653 -308 720 l-25 50 -59 -65 c-417 -460 -437 -1104 -46 -1515 123 -131 256 -210 451 -270 48 -15 87 -31 87 -36 0 -4 -11 -43 -25 -86 -13 -43 -33 -117 -43 -165 l-19 -86 286 -4 c157 -2 288 -2 290 -1 2 1 -38 101 -88 220 -51 120 -95 226 -98 236 -4 14 17 28 112 72 91 43 120 53 127 43 11 -18 114 -252 186 -423 l59 -140 169 -5 c93 -3 170 -4 172 -4 3 2 -13 39 -197 464 l-110 255 120 58 c67 32 123 57 124 55 5 -5 78 -170 220 -502 73 -169 137 -312 142 -317 5 -5 627 -9 1448 -9 l1439 0 44 132 c114 337 234 684 240 690 10 10 232 -99 232 -114 0 -7 -52 -168 -115 -358 -63 -190 -115 -346 -115 -347 0 -2 84 -3 188 -3 l187 0 29 83 c75 214 169 473 175 479 6 6 216 -83 233 -100 4 -4 -24 -97 -62 -207 -38 -109 -72 -213 -76 -229 l-5 -31 295 0 c163 0 296 3 296 6 0 4 -75 269 -97 339 -3 12 11 21 54 34 82 26 217 96 293 152 237 174 384 461 397 774 13 310 -88 575 -323 851 -37 43 -73 79 -79 79 -6 0 -32 -53 -58 -118 -25 -64 -84 -214 -130 -332 -47 -118 -93 -240 -102 -271 l-18 -56 33 -47 c55 -81 73 -147 68 -256 -3 -76 -9 -106 -30 -152 -35 -75 -98 -141 -167 -175 -49 -25 -67 -28 -151 -28 -109 0 -53 -21 -550 210 -162 76 -314 150 -336 166 -92 63 -143 157 -151 277 -12 175 56 308 192 380 44 24 62 27 145 27 93 0 98 -1 200 -49 219 -101 406 -189 444 -207 50 -24 53 -24 61 4 7 20 222 575 370 952 279 711 399 1007 409 1011 7 3 59 -12 117 -33 l104 -39 131 381 c168 487 160 470 214 479 114 18 284 109 383 205 64 61 137 170 175 262 48 117 65 220 59 368 -5 151 -29 248 -91 376 -56 117 -194 301 -211 283 -6 -5 -207 -604 -255 -756 -21 -67 -25 -73 -46 -68 -36 10 -595 213 -601 220 -4 3 55 192 130 419 75 228 137 419 137 425 0 15 -3 15 -93 1 -208 -31 -394 -125 -528 -265 -100 -106 -161 -214 -205 -361 -32 -109 -44 -306 -24 -417 15 -87 60 -214 99 -280 l29 -49 -74 -216 c-141 -407 -214 -635 -206 -642 4 -4 43 -20 87 -35 44 -15 81 -28 82 -29 3 -2 -8 -45 -53 -210 -14 -55 -48 -181 -74 -280 -105 -395 -162 -606 -199 -730 -36 -121 -64 -223 -121 -435 -13 -47 -24 -86 -25 -88 -1 -1 -33 13 -71 31 -38 19 -97 47 -132 62 -48 22 -61 32 -57 44 29 71 164 514 160 521 -10 16 -288 197 -405 263 -63 35 -161 88 -217 116 -57 28 -103 57 -103 64 0 8 12 24 26 38 95 89 287 372 379 558 51 105 63 121 80 117 53 -15 181 -17 272 -6 l100 12 81 211 c45 116 80 213 78 215 -2 1 -20 -8 -41 -22 -79 -54 -139 -69 -299 -74 -141 -4 -148 -4 -143 14 24 81 77 328 77 360 0 2 27 4 60 4 126 0 234 69 292 188 30 60 33 76 33 152 0 77 -3 92 -33 153 -54 110 -160 177 -278 177 -50 0 -44 -19 -67 210 -11 108 -12 147 -3 152 19 13 147 9 217 -6 68 -15 135 -45 200 -89 l37 -25 37 106 c21 59 51 133 67 164 17 31 27 62 23 68 -10 16 -132 74 -205 98 -126 41 -320 52 -440 26 -23 -5 -27 0 -49 58 -131 347 -379 702 -640 917 -481 398 -1045 590 -1616 551z m-421 -1657 c180 -40 344 -133 480 -273 89 -90 89 -90 105 -68 32 46 86 100 156 157 188 151 413 222 650 206 335 -23 607 -196 740 -470 70 -142 80 -193 79 -385 0 -152 -3 -172 -28 -250 -88 -269 -267 -476 -525 -609 -56 -29 -101 -54 -101 -57 0 -2 24 -39 54 -82 70 -100 100 -161 132 -269 37 -121 39 -308 5 -427 -78 -279 -271 -505 -550 -645 -169 -85 -299 -123 -492 -141 -179 -18 -423 8 -584 62 -164 54 -326 152 -451 271 -98 92 -157 172 -210 282 -62 128 -84 223 -84 364 0 133 16 217 60 327 32 80 133 244 151 244 27 0 1 24 -59 54 -236 119 -411 292 -508 502 -62 133 -77 209 -78 384 -1 134 2 166 22 235 96 332 360 555 714 605 81 11 233 3 322 -17z m4036 -1004 l67 -22 -33 -101 c-49 -149 -167 -500 -170 -504 -4 -6 -155 51 -152 57 2 4 47 138 102 299 54 160 103 292 109 292 6 0 41 -10 77 -21z m330 -145 c0 -11 -27 -99 -61 -195 -33 -96 -76 -221 -96 -279 -19 -58 -36 -106 -38 -108 -1 -2 -28 9 -60 23 -32 14 -64 25 -71 25 -8 0 -14 5 -14 11 0 5 45 142 101 303 l101 293 69 -26 c55 -21 69 -30 69 -47z" fill="#1aff1a"/>
<path d="M4532 6491 c-72 -25 -122 -67 -155 -132 -37 -72 -44 -140 -22 -215 24 -82 105 -164 188 -190 142 -44 309 46 348 189 18 65 6 168 -24 220 -37 63 -97 113 -158 131 -68 21 -111 20 -177 -3z" fill="#1aff1a"/>
<path d="M5934 6492 c-121 -43 -184 -137 -184 -278 0 -191 209 -325 385 -246 105 48 165 139 165 251 0 88 -16 135 -67 191 -77 86 -196 119 -299 82z" fill="#1aff1a"/>
<path d="M4900 5527 c-14 -7 -34 -29 -45 -49 -18 -35 -19 -40 -5 -80 13 -37 24 -48 90 -85 168 -96 179 -98 237 -49 23 20 28 32 28 69 0 54 -15 73 -107 133 -122 78 -148 86 -198 61z" fill="#1aff1a"/>
<path d="M5590 5494 c-95 -59 -122 -80 -137 -107 -27 -49 -8 -119 38 -143 41 -21 59 -18 125 22 32 20 82 47 109 59 53 24 75 54 75 101 0 58 -55 114 -112 114 -13 0 -57 -21 -98 -46z" fill="#1aff1a"/>
<path d="M4630 4757 c-41 -14 -80 -68 -80 -109 0 -68 50 -111 217 -188 173 -81 329 -111 564 -111 261 0 408 33 627 144 130 65 152 86 152 144 0 34 -31 86 -62 107 -47 30 -71 29 -139 -7 -198 -105 -367 -142 -624 -134 -206 6 -297 27 -487 111 -70 31 -128 56 -130 55 -2 0 -19 -5 -38 -12z" fill="#1aff1a"/>
</g>
</svg>